{"title":"Casino Royale 1080p Dual Audio [Eng+Hin] By kishan(wall.e)","uid":7505404,"size":1604388538,"categoryP":"video","categoryS":"hd___movies","magnet":"?xt=urn:btih:9d10c01eb2d50cbd6f54c866991de2a9b89b7917&amp;dn=Casino+Royale+1080p+Dual+Audio+%5BEng%2BHin%5D+By+kishan%28wall.e%29&amp;tr=udp%3A%2F%2Ftracker.openbittorrent.com%3A80&amp;tr=udp%3A%2F%2Fopen.demonii.com%3A1337&amp;tr=udp%3A%2F%2Ftracker.coppersurfer.tk%3A6969&amp;tr=udp%3A%2F%2Fexodus.desync.com%3A6969","seeders":0,"leechers":0,"uploader":"kspatel1","files":12,"time":1344153916,"description":"General\n\nFormat                                   : Matroska\nFormat version                           : Version 2\nFile size                                : 1.48 GiB\nDuration                                 : 2h 18mn\nOverall bit rate                         : 1 532 Kbps\nMovie name                               : Casino Royale 1080p Dual Audio[Eng+Hin]~kishan(wall.e)\n\nVideo\n\nID                                       : 3\nFormat                                   : AVC\nFormat/Info                              : Advanced Video Codec\nFormat profile                           : &lt;a class=&quot;__cf_email__&quot; href=&quot;/cdn-cgi/l/email-protection&quot; data-cfemail=&quot;6129080609212d554f51&quot;&gt;[email&amp;#160;protected]&lt;/a&gt;&lt;script cf-hash='f9e31' type=&quot;text/javascript&quot;&gt;\n/* &lt;![CDATA[ */!function(){try{var t=&quot;currentScript&quot;in document?document.currentScript:function(){for(var t=document.getElementsByTagName(&quot;script&quot;),e=t.length;e--;)if(t[e].getAttribute(&quot;cf-hash&quot;))return t[e]}();if(t&amp;&amp;t.previousSibling){var e,r,n,i,c=t.previousSibling,a=c.getAttribute(&quot;data-cfemail&quot;);if(a){for(e=&quot;&quot;,r=parseInt(a.substr(0,2),16),n=2;a.length-n;n+=2)i=parseInt(a.substr(n,2),16)^r,e+=String.fromCharCode(i);e=document.createTextNode(e),c.parentNode.replaceChild(e,c)}}}catch(u){}}();/* ]]&gt; */&lt;/script&gt;\nFormat settings, CABAC                   : Yes\nFormat settings, ReFrames                : 4 frames\nMuxing mode                              : Header stripping\nCodec ID                                 : V_MPEG4/ISO/AVC\nDuration                                 : 2h 18mn\nBit rate                                 : 1 299 Kbps\nWidth                                    : 1 920 pixels\nHeight                                   : 800 pixels\nDisplay aspect ratio                     : 2.40:1\nFrame rate                               : 25.000 fps\nOriginal frame rate                      : 23.976 fps\nBit depth                                : 8 bits\nStream size                              : 1.28 GiB (87%)\nTitle                                    : Casino Royale 1080p Dual Audio[Eng+Hin]~kishan(wall.e)\nLanguage                                 : Hindi\nDefault                                  : Yes\nForced                                   : No\n\nAudio #1\n\nID                                       : 1\nFormat                                   : MPEG Audio\nFormat version                           : Version 1\nFormat profile                           : Layer 3\nCodec ID                                 : A_MPEG/L3\nCodec ID/Hint                            : MP3\nDuration                                 : 2h 18mn\nBit rate                                 : 128 Kbps\nChannel(s)                               : 2 channels\nSampling rate                            : 44.1 KHz\nStream size                              : 127 MiB (8%)\nTitle                                    : Hindi Audio ~Kishan(wall.e)\nLanguage                                 : Hindi\n\n\nAudio #2\n\nID                                       : 2\nFormat                                   : MPEG Audio\nFormat version                           : Version 2\nFormat profile                           : Layer 3\nMode                                     : Joint stereo\nMode extension                           : MS Stereo\nCodec ID                                 : A_MPEG/L3\nCodec ID/Hint                            : MP3\nDuration                                 : 2h 18mn\nBit rate mode                            : Constant\nBit rate                                 : 48.0 Kbps\nChannel(s)                               : 2 channels\nSampling rate                            : 22.05 KHz\nStream size                              : 47.5 MiB (3%)\nTitle                                    : English Audio ~Kishan(wall.e)\nLanguage                                 : English\n\nScreenshots\n &lt;a href=&quot;\nhttp://www3.picturepush.com/photo/a/8825071/img/casino-royal/1.png&quot; rel=&quot;nofollow&quot; target=&quot;_NEW&quot;&gt;\nhttp://www3.picturepush.com/photo/a/8825071/img/casino-royal/1.png&lt;/a&gt; &lt;a href=&quot;\nhttp://www5.picturepush.com/photo/a/8825078/img/casino-royal/2.png&quot; rel=&quot;nofollow&quot; target=&quot;_NEW&quot;&gt;\nhttp://www5.picturepush.com/photo/a/8825078/img/casino-royal/2.png&lt;/a&gt; &lt;a href=&quot;\nhttp://www5.picturepush.com/photo/a/8825088/img/casino-royal/3.png&quot; rel=&quot;nofollow&quot; target=&quot;_NEW&quot;&gt;\nhttp://www5.picturepush.com/photo/a/8825088/img/casino-royal/3.png&lt;/a&gt; &lt;a href=&quot;\nhttp://www3.picturepush.com/photo/a/8825091/img/casino-royal/4.png&quot; rel=&quot;nofollow&quot; target=&quot;_NEW&quot;&gt;\nhttp://www3.picturepush.com/photo/a/8825091/img/casino-royal/4.png&lt;/a&gt; &lt;a href=&quot;\nhttp://www3.picturepush.com/photo/a/8825106/img/casino-royal/5.png&quot; rel=&quot;nofollow&quot; target=&quot;_NEW&quot;&gt;\nhttp://www3.picturepush.com/photo/a/8825106/img/casino-royal/5.png&lt;/a&gt; &lt;a href=&quot;\nhttp://www1.picturepush.com/photo/a/8825114/img/casino-royal/6.png&quot; rel=&quot;nofollow&quot; target=&quot;_NEW&quot;&gt;\nhttp://www1.picturepush.com/photo/a/8825114/img/casino-royal/6.png&lt;/a&gt;\n","torrent":{"xt":"urn:btih:9d10c01eb2d50cbd6f54c866991de2a9b89b7917","amp;dn":"Casino+Royale+1080p+Dual+Audio+%5BEng%2BHin%5D+By+kishan%28wall.e%29","amp;tr":["udp%3A%2F%2Ftracker.openbittorrent.com%3A80","udp%3A%2F%2Fopen.demonii.com%3A1337","udp%3A%2F%2Ftracker.coppersurfer.tk%3A6969","udp%3A%2F%2Fexodus.desync.com%3A6969"],"infoHash":"9d10c01eb2d50cbd6f54c866991de2a9b89b7917","infoHashBuffer":{"type":"Buffer","data":[157,16,192,30,178,213,12,189,111,84,200,102,153,29,226,169,184,155,121,23]},"announce":[],"urlList":[]}}